<?xml version="1.0" encoding="UTF-8"?>
<svg id="Capa_1" data-name="Capa 1" xmlns="http://www.w3.org/2000/svg" viewBox="0 0 1080 1080">
  <defs>
    <style>
      .cls-1 {
        fill: #ce9044;
      }

      .cls-2 {
        fill: #e4e1da;
      }
    </style>
  </defs>
  <rect class="cls-1" x="-2.3" y="-7.87" width="1084.6" height="1105.02"/>
  <g>
    <circle class="cls-2" cx="655.83" cy="782.84" r="43.55"/>
    <path class="cls-2" d="M887.51,822.77c.03,1.76.28,3.55-1.64,3.63h-156.72c-1.54,0-2.8-1.26-2.8-2.82l2.02-193.27c.08-7.71-3.91-15.11-10.55-18.77-.63-.35-1.13-.63-1.64-.83-35.79-14.51-48.06,17.13-58.69,32.59-23.15,33.68-42.87,69.14-70.63,99.92-133,147.4-333.17,66.22-382.47-110.35-47.83-171.29,37.63-359.93,225.28-378.95,2.19-.22,4.39-.32,6.6-.32,41.06.01,452.37.13,452.37.13v167.68l-424.68-.45c-10.08.45-20,1.76-29.82,3.9-95.16,26.75-122.77,175.29-37.3,223.9,87.98,50.05,141.61-77.15,194.18-123.55,101.91-89.92,287.96-62.34,296.47,92.14,3.73,67.23-2.9,137.81.03,205.41Z"/>
  </g>
</svg>